<?xml version="1.0" standalone="no"?>
<svg viewBox="0 0 200 200" xmlns="http://www.w3.org/2000/svg">
  <path fill="#8A3FFC" d="M38.5,-68.1C49.2,-60.5,56.6,-48.7,54.2,-36.7C51.8,-24.7,39.5,-12.3,40.7,0.7C41.9,13.7,56.4,27.3,55.9,34.3C55.4,41.2,39.7,41.4,27.9,47.1C16,52.7,8,63.8,1.4,61.3C-5.1,58.8,-10.3,42.8,-17.3,34.3C-24.3,25.9,-33.2,25.1,-43.9,20.6C-54.7,16.2,-67.3,8.1,-74.7,-4.3C-82.2,-16.7,-84.3,-33.3,-75.9,-41.7C-67.4,-50.1,-48.3,-50.3,-33.9,-55.8C-19.4,-61.2,-9.7,-72,2.1,-75.6C13.9,-79.3,27.8,-75.8,38.5,-68.1Z" transform="translate(100 100)" />
</svg>
